<svg width="124" height="123" viewBox="0 0 124 123" fill="none" xmlns="http://www.w3.org/2000/svg">
<path fill-rule="evenodd" clip-rule="evenodd" d="M38.0108 10.5489C36.5557 12.1577 35.75 14.2495 35.75 16.4187V17.25V25.9999V90.7518C32.0932 88.5533 27.5482 87.25 22.625 87.25C10.55 87.25 0.75 95.09 0.75 104.75C0.75 114.419 10.55 122.25 22.625 122.25C34.7 122.25 44.5 114.419 44.5 104.75V25.1249L114.5 18.1249V73.2492C110.843 71.0518 106.298 69.75 101.375 69.75C89.3 69.75 79.5 77.5813 79.5 87.25C79.5 96.9188 89.3 104.75 101.375 104.75C113.45 104.75 123.25 96.9188 123.25 87.25V17.2499V9.41869C123.25 9.41862 123.25 9.41855 123.25 9.41848V8.5H123.202C123.106 7.59344 122.869 6.70547 122.498 5.86881C122.002 4.7511 121.277 3.74978 120.37 2.92945C119.463 2.10912 118.394 1.48799 117.232 1.10613C116.071 0.724268 114.842 0.590157 113.625 0.712444L43.625 7.71244C41.4667 7.92936 39.4659 8.94023 38.0108 10.5489Z" fill="url(#paint0_linear_21_51)"/>
<defs>
<linearGradient id="paint0_linear_21_51" x1="0.75" y1="61.4593" x2="123.25" y2="61.4593" gradientUnits="userSpaceOnUse">
<stop stop-color="#BB4DC1"/>
<stop offset="0.183866" stop-color="#9249B4"/>
<stop offset="0.408866" stop-color="#6A45A7"/>
<stop offset="0.613866" stop-color="#39247D"/>
<stop offset="0.853866" stop-color="#333A94"/>
<stop offset="1" stop-color="#2AF9FE"/>
</linearGradient>
</defs>
</svg>
